<?xml version="1.0" encoding="UTF-8"?>
<!DOCTYPE svg PUBLIC "-//W3C//DTD SVG 1.1//EN" "http://www.w3.org/Graphics/SVG/1.1/DTD/svg11.dtd">
<!-- Creator: CorelDRAW 2018 (64-Bit) -->
<svg xmlns="http://www.w3.org/2000/svg" xml:space="preserve" width="13.9271mm" height="16.0371mm" version="1.1" style="shape-rendering:geometricPrecision; text-rendering:geometricPrecision; image-rendering:optimizeQuality; fill-rule:evenodd; clip-rule:evenodd"
viewBox="0 0 1018.02 1172.26"
 xmlns:xlink="http://www.w3.org/1999/xlink">
 <defs>
  <style type="text/css">
   <![CDATA[
    .str0 {stroke:#FEFEFE;stroke-width:14.62;stroke-miterlimit:22.9256}
    .fil1 {fill:#FEFEFE}
    .fil0 {fill:#222220}
   ]]>
  </style>
 </defs>
 <g id="Layer_x0020_1">
  <metadata id="CorelCorpID_0Corel-Layer"/>
  <path class="fil0" d="M1008.45 831.28c-3.14,-7.59 -9.29,-13.54 -16.98,-16.45 -78.56,-29.68 -131.06,-100.88 -137.02,-185.82 -5.83,-83.1 34.82,-156.9 108.75,-197.4 7.72,-4.22 13.17,-11.66 14.89,-20.28 1.72,-8.63 -0.47,-17.59 -5.98,-24.45 -61.55,-76.71 -149.1,-122.5 -234.22,-122.5 -40.31,0 -71.78,7 -98.95,15.68 17.55,-13.38 33.6,-28.95 47.2,-46.4 47.67,-61.19 69.33,-134.44 59.43,-200.96 -2.29,-15.36 -15.95,-26.32 -31.5,-25.32 -66.94,4.61 -142.83,45.24 -188.84,101.1 -47.79,58.04 -70.71,128.34 -62.42,189.85 -6.47,-2.19 -13.06,-4.52 -19.86,-6.95 -35.39,-12.62 -75.52,-26.91 -125.59,-26.91 -96.69,0 -194.64,58.31 -255.63,152.18 -43.59,67.12 -61.93,162 -51.62,267.16 10.71,109.36 50.45,219.02 114.92,317.12 49.88,75.9 119.25,163.14 213.8,164.02l1.77 0.01c39.02,-0.01 65.25,-11.7 90.62,-23 26.78,-11.94 52.08,-23.21 97.96,-23.45l1.51 -0.01c44.89,0 69.35,11.21 95.26,23.08 24.89,11.4 50.62,23.2 89.58,23.2l1.78 -0.01c92.09,-0.87 161.46,-87.72 217.17,-172.54 33.98,-51.68 47.18,-78.7 73.62,-137.29 3.37,-7.49 3.5,-16.04 0.36,-23.65zm-437.25 -684.97c28.38,-34.46 74.18,-62.91 117.12,-74.38 -2.21,58.13 -33.9,105.57 -49.15,125.13 -29.52,37.9 -74.93,65.23 -118.39,72.56 0.72,-28.62 9.82,-74 50.42,-123.31zm313.5 813.21c-44.34,67.52 -103.5,145.09 -167.97,145.7l-1.22 0.01c-25.96,0 -43.09,-7.86 -64.78,-17.78 -27.7,-12.7 -62.18,-28.49 -120.07,-28.49l-1.83 0c-58.37,0.32 -93.57,16 -121.86,28.61 -22.36,9.96 -40.03,17.84 -66.39,17.84l-1.23 -0.01c-34.87,-0.32 -85.09,-16.21 -164.58,-137.17 -114.77,-174.67 -141.91,-397.86 -63.12,-519.15 50.12,-77.15 128.94,-125.08 205.69,-125.08 39.79,0 71.76,11.4 105.6,23.46 32.51,11.59 66.12,23.57 105.05,23.57 36.72,0 66.63,-11.32 95.57,-22.27 32.28,-12.21 65.66,-24.84 114.33,-24.84 57.76,0 117.72,27.66 165.4,75.27 -74.89,54.38 -114.88,139.48 -108.25,234 6.85,97.61 62.01,181.07 146.35,224.46 -17.92,38.67 -30.53,62.05 -56.71,101.87z"/>
  <path class="fil1 str0" d="M1008.45 831.28c-3.14,-7.59 -9.29,-13.54 -16.98,-16.45 -78.56,-29.68 -131.06,-100.88 -137.02,-185.82 -5.83,-83.1 34.82,-156.9 108.75,-197.4 7.72,-4.22 13.17,-11.66 14.89,-20.28 1.72,-8.63 -0.47,-17.59 -5.98,-24.45 -61.55,-76.71 -149.1,-122.5 -234.22,-122.5 -40.31,0 -71.78,7 -98.95,15.68 17.55,-13.38 33.6,-28.95 47.2,-46.4 47.67,-61.19 69.33,-134.44 59.43,-200.96 -2.29,-15.36 -15.95,-26.32 -31.5,-25.32 -66.94,4.61 -142.83,45.24 -188.84,101.1 -47.79,58.04 -70.71,128.34 -62.42,189.85 -6.47,-2.19 -13.06,-4.52 -19.86,-6.95 -35.39,-12.62 -75.52,-26.91 -125.59,-26.91 -96.69,0 -194.64,58.31 -255.63,152.18 -43.59,67.12 -61.93,162 -51.62,267.16 10.71,109.36 50.45,219.02 114.92,317.12 49.88,75.9 119.25,163.14 213.8,164.02l1.77 0.01c39.02,-0.01 65.25,-11.7 90.62,-23 26.78,-11.94 52.08,-23.21 97.96,-23.45l1.51 -0.01c44.89,0 69.35,11.21 95.26,23.08 24.89,11.4 50.62,23.2 89.58,23.2l1.78 -0.01c92.09,-0.87 161.46,-87.72 217.17,-172.54 33.98,-51.68 47.18,-78.7 73.62,-137.29 3.37,-7.49 3.5,-16.04 0.36,-23.65zm-437.25 -684.97c28.38,-34.46 74.18,-62.91 117.12,-74.38 -2.21,58.13 -33.9,105.57 -49.15,125.13 -29.52,37.9 -74.93,65.23 -118.39,72.56 0.72,-28.62 9.82,-74 50.42,-123.31zm313.5 813.21c-44.34,67.52 -103.5,145.09 -167.97,145.7l-1.22 0.01c-25.96,0 -43.09,-7.86 -64.78,-17.78 -27.7,-12.7 -62.18,-28.49 -120.07,-28.49l-1.83 0c-58.37,0.32 -93.57,16 -121.86,28.61 -22.36,9.96 -40.03,17.84 -66.39,17.84l-1.23 -0.01c-34.87,-0.32 -85.09,-16.21 -164.58,-137.17 -114.77,-174.67 -141.91,-397.86 -63.12,-519.15 50.12,-77.15 128.94,-125.08 205.69,-125.08 39.79,0 71.76,11.4 105.6,23.46 32.51,11.59 66.12,23.57 105.05,23.57 36.72,0 66.63,-11.32 95.57,-22.27 32.28,-12.21 65.66,-24.84 114.33,-24.84 57.76,0 117.72,27.66 165.4,75.27 -74.89,54.38 -114.88,139.48 -108.25,234 6.85,97.61 62.01,181.07 146.35,224.46 -17.92,38.67 -30.53,62.05 -56.71,101.87z"/>
  <g id="_2203891994368">
  </g>
  <g id="_2203891994368_0">
  </g>
  <g id="_2203891997472">
  </g>
  <g id="_2203891997472_1">
  </g>
  <g id="_2203891996544">
  </g>
  <g id="_2203891996544_2">
  </g>
  <g id="_2203891996512">
  </g>
  <g id="_2203891996512_3">
  </g>
  <g id="_2203891997376">
  </g>
  <g id="_2203891997376_4">
  </g>
  <g id="_2203892000160">
  </g>
  <g id="_2203892000160_5">
  </g>
  <g id="_2203891999200">
  </g>
  <g id="_2203891999200_6">
  </g>
  <g id="_2203891998304">
  </g>
  <g id="_2203891998304_7">
  </g>
  <g id="_2203892002208">
  </g>
  <g id="_2203892002208_8">
  </g>
  <g id="_2203892001632">
  </g>
  <g id="_2203892001632_9">
  </g>
  <g id="_2203892002048">
  </g>
  <g id="_2203892002048_10">
  </g>
  <g id="_2203892000480">
  </g>
  <g id="_2203892000480_11">
  </g>
  <g id="_2203892003040">
  </g>
  <g id="_2203892003040_12">
  </g>
  <g id="_2203892002912">
  </g>
  <g id="_2203892002912_13">
  </g>
  <g id="_2203892004000">
  </g>
  <g id="_2203892004000_14">
  </g>
 </g>
</svg>
