<?xml version="1.0" encoding="UTF-8"?>
<!DOCTYPE svg PUBLIC "-//W3C//DTD SVG 1.1//EN" "http://www.w3.org/Graphics/SVG/1.1/DTD/svg11.dtd">
<!-- Creator: CorelDRAW 2018 (64-Bit) -->
<svg xmlns="http://www.w3.org/2000/svg" xml:space="preserve" width="26.056mm" height="29.6298mm" version="1.1" style="shape-rendering:geometricPrecision; text-rendering:geometricPrecision; image-rendering:optimizeQuality; fill-rule:evenodd; clip-rule:evenodd"
viewBox="0 0 2605.58 2962.96"
 xmlns:xlink="http://www.w3.org/1999/xlink">
 <defs>
  <style type="text/css">
   <![CDATA[
    .fil0 {fill:#FEFEFE}
   ]]>
  </style>
 </defs>
 <g id="Layer_x0020_1">
  <metadata id="CorelCorpID_0Corel-Layer"/>
  <g id="_1521523667856">
   <path class="fil0" d="M2603.76 773.4c-2.85,-37 -33.68,-65.52 -70.75,-65.52l-2460.36 0c-36.84,0 -67.5,28.12 -70.67,64.89 -1.11,12.51 -1.98,25.11 -1.98,37.94l0 1699c0,249.96 203.37,453.26 453.25,453.26l1699.09 0c249.88,0 453.25,-203.3 453.25,-453.26l0 -1699c0,-12.59 -0.87,-25.03 -1.82,-37.31zm-140.15 1736.31c0,171.69 -139.68,311.29 -311.28,311.29l-1699.09 0c-171.6,0 -311.28,-139.6 -311.28,-311.29l0 -1659.86 2321.64 0 0 1659.86z"/>
   <path class="fil0" d="M857.07 626.84c1.18,0 2.37,0 3.48,-0.08 39.21,-1.9 69.4,-35.18 67.5,-74.32 -7.68,-159.24 52.68,-285.69 170.1,-356.04 122.39,-73.36 287.03,-73.36 409.44,0 117.33,70.27 177.78,196.72 170.02,356.04 -1.82,39.14 28.36,72.42 67.5,74.32 38.58,1.5 72.41,-28.28 74.31,-67.5 10.22,-210.9 -76.85,-387.57 -238.87,-484.71 -166.13,-99.42 -389.23,-99.42 -555.37,0.08 -162.1,97.05 -249.17,273.73 -238.95,484.63 1.83,38.03 33.2,67.58 70.84,67.58z"/>
  </g>
 </g>
</svg>
