<?xml version="1.0" encoding="UTF-8"?>
<!DOCTYPE svg PUBLIC "-//W3C//DTD SVG 1.1//EN" "http://www.w3.org/Graphics/SVG/1.1/DTD/svg11.dtd">
<!-- Creator: CorelDRAW 2018 (64-Bit) -->
<svg xmlns="http://www.w3.org/2000/svg" xml:space="preserve" width="5mm" height="5mm" version="1.1" style="shape-rendering:geometricPrecision; text-rendering:geometricPrecision; image-rendering:optimizeQuality; fill-rule:evenodd; clip-rule:evenodd"
viewBox="0 0 499.96 499.96"
 xmlns:xlink="http://www.w3.org/1999/xlink">
 <defs>
  <style type="text/css">
   <![CDATA[
    .fil0 {fill:#FEFEFE}
   ]]>
  </style>
 </defs>
 <g id="Layer_x0020_1">
  <metadata id="CorelCorpID_0Corel-Layer"/>
  <path class="fil0" d="M357.37 314.42l-22.7 0 -7.89 -7.83c27.88,-32.51 44.83,-74.63 44.83,-120.8 0,-102.61 -83.18,-185.8 -185.81,-185.8 -102.62,0 -185.81,83.18 -185.81,185.8 0,102.61 83.18,185.8 185.81,185.8 46.17,0 88.27,-16.92 120.77,-44.77l7.89 7.84 0 22.64 142.87 142.66 42.63 -42.62 -142.59 -142.92zm-171.57 0c-71.06,0 -128.64,-57.58 -128.64,-128.63 0,-71.03 57.58,-128.63 128.64,-128.63 71.03,0 128.64,57.6 128.64,128.63 0,71.05 -57.61,128.63 -128.64,128.63z"/>
 </g>
</svg>
